<?xml version="1.0" standalone="no"?>
<!DOCTYPE svg PUBLIC "-//W3C//DTD SVG 20010904//EN"
 "http://www.w3.org/TR/2001/REC-SVG-20010904/DTD/svg10.dtd">
<svg version="1.0" xmlns="http://www.w3.org/2000/svg"
 width="700.000000pt" height="700.000000pt" viewBox="0 0 700.000000 700.000000"
 preserveAspectRatio="xMidYMid meet">
<g transform="translate(0.000000,700.000000) scale(0.100000,-0.100000)"
fill="#b01c2e" stroke="none">
<path d="M60 5363 l0 -1633 28 -11 c104 -40 361 -98 507 -115 131 -15 453 -9
565 11 14 2 68 11 120 20 52 9 228 50 390 91 162 42 302 77 311 79 9 2 60 13
114 25 170 36 316 49 510 45 231 -5 399 -35 612 -109 56 -20 103 -36 105 -36
6 0 2 3246 -4 3256 -4 6 -127 9 -335 9 l-328 0 -1 -165 c-1 -91 -2 -170 -3
-176 -1 -7 -68 -10 -203 -10 l-203 1 -1 161 c0 88 -3 167 -6 175 -5 12 -36 15
-189 14 l-184 0 -2 -165 c-1 -91 -2 -170 -2 -176 -1 -7 -61 -10 -183 -9 -101
1 -185 3 -188 3 -3 1 -5 80 -5 175 l0 172 -187 0 -188 1 0 -176 0 -177 -192 1
-191 1 -1 175 -1 175 -332 0 -333 1 0 -1633z m1624 835 c-1 -51 -2 -97 -3
-101 -3 -23 -230 -95 -327 -104 -95 -8 -128 20 -114 99 4 21 4 38 0 38 -4 0
-32 -11 -63 -25 -124 -54 -284 -74 -360 -44 -47 18 -87 59 -87 88 l0 25 20
-22 c12 -12 28 -23 38 -23 119 -9 202 8 389 80 62 24 119 41 127 38 12 -5 14
-17 9 -57 -5 -47 -4 -50 17 -50 57 0 252 80 319 132 13 10 27 18 30 18 3 0 6
-42 5 -92z m493 -231 c-94 -111 -159 -244 -181 -373 -34 -196 22 -373 178
-558 l39 -46 239 0 c270 0 246 10 227 -97 l-11 -63 -38 0 c-43 0 -56 -12 -58
-55 -6 -94 -65 -250 -123 -324 -25 -32 -24 -41 7 -41 79 0 431 -117 411 -136
-3 -3 -22 -1 -43 5 -22 5 -70 12 -109 16 -38 4 -83 9 -100 11 -44 7 -303 6
-350 -1 -141 -20 -190 -29 -270 -50 -49 -14 -126 -37 -170 -53 -44 -16 -143
-52 -220 -80 -77 -28 -165 -58 -195 -66 -186 -52 -393 -55 -592 -7 l-73 17
130 -3 c227 -5 373 35 742 201 117 53 250 108 295 123 130 42 125 45 -42 28
-48 -5 -136 -21 -207 -38 -13 -3 -69 -22 -125 -42 -57 -20 -149 -53 -206 -73
l-103 -36 -44 48 c-66 74 -111 165 -145 296 -16 61 -48 100 -104 128 -25 13
-46 29 -46 36 0 8 -3 28 -7 46 -3 19 -2 31 3 28 5 -3 38 -9 73 -12 36 -4 67
-8 70 -10 3 -2 33 -7 66 -10 33 -4 71 -9 85 -11 14 -2 43 -7 65 -10 29 -4 50
-16 78 -46 67 -70 171 -119 251 -119 l31 0 -1 108 c0 59 3 114 7 122 7 14 67
55 70 48 1 -2 3 -63 4 -136 2 -73 6 -136 9 -139 11 -11 126 15 180 42 127 62
182 177 131 275 -32 62 -114 122 -195 142 -19 5 -44 11 -55 14 -42 11 -185 5
-246 -11 -82 -22 -112 -38 -171 -93 l-49 -45 -29 34 c-70 83 -122 196 -136
295 -14 97 -11 153 12 254 l6 25 -31 -29 c-70 -67 -97 -207 -66 -337 10 -41
30 -102 46 -137 l28 -62 -42 6 c-191 26 -367 -54 -367 -168 0 -73 46 -122 140
-149 l45 -13 -45 -7 c-25 -3 -91 -5 -148 -4 -92 2 -109 6 -165 33 -47 24 -68
41 -85 70 -40 71 -28 125 43 201 l45 49 73 -14 c39 -7 82 -16 95 -19 21 -5 19
-1 -17 47 -104 139 -117 296 -34 449 24 46 90 120 128 145 19 12 129 38 215
49 19 3 46 7 60 10 32 7 143 25 151 25 4 0 33 33 65 73 87 107 174 188 209
193 6 1 38 5 71 8 64 8 94 12 164 21 25 3 61 7 80 10 20 2 101 13 180 25 80
11 165 23 190 26 25 3 47 8 49 10 2 2 6 2 9 0 2 -3 -21 -33 -51 -69z m387
-114 c-77 -174 -108 -326 -107 -511 l1 -114 -26 7 c-92 24 -282 28 -321 6 -23
-13 -24 -13 -16 25 31 166 198 396 416 572 35 29 65 52 66 52 2 0 -4 -17 -13
-37z m-1827 -1779 c-3 -3 -12 -4 -19 -1 -8 3 -5 6 6 6 11 1 17 -2 13 -5z"/>
<path d="M5027 6978 c-184 -47 -334 -149 -410 -279 -59 -100 -70 -150 -72
-335 -3 -146 -6 -178 -23 -217 -28 -64 -74 -103 -179 -154 -65 -31 -102 -56
-128 -86 -88 -103 -137 -276 -143 -510 -2 -66 -16 -68 -27 -5 -4 24 -9 48 -10
53 -6 20 -56 231 -76 315 -71 301 -291 1215 -294 1218 -1 1 -2 -729 -2 -1623
0 -894 2 -1625 4 -1625 2 0 50 15 106 34 108 36 237 71 303 82 165 27 217 32
387 30 l188 -2 -2 64 c-3 76 -31 214 -60 297 -87 244 -242 432 -480 581 -87
54 -61 50 68 -12 149 -71 274 -163 394 -289 164 -174 278 -408 313 -643 6 -41
6 -42 42 -48 16 -3 171 -41 344 -84 315 -80 467 -113 570 -125 30 -4 66 -9 80
-12 50 -9 377 -11 460 -2 125 14 363 65 460 98 l85 29 -100 2 c-169 3 -280 10
-520 34 -38 4 -216 30 -280 41 -266 47 -514 127 -667 216 -38 22 -68 42 -66
44 2 1 55 5 118 8 151 8 211 18 319 58 122 45 177 95 240 219 62 121 122 183
201 208 19 7 87 14 150 17 63 4 144 13 179 21 226 51 368 219 420 494 13 66
21 140 16 140 -2 0 -14 -19 -28 -43 -64 -108 -213 -234 -299 -253 -74 -16
-160 -10 -269 18 -225 58 -313 65 -415 35 -86 -25 -112 -44 -238 -170 -147
-147 -236 -203 -372 -232 -36 -8 -234 -16 -234 -9 0 5 79 113 90 124 3 3 25
32 50 65 25 33 47 62 50 65 3 3 17 21 30 40 14 19 32 44 42 55 14 17 629 816
908 1180 46 61 145 189 219 285 138 179 316 410 361 470 14 18 30 38 35 44 28
30 66 89 49 75 -24 -21 -13 -12 -309 -249 -137 -110 -257 -207 -266 -214 -9
-7 -61 -49 -115 -92 -54 -43 -101 -80 -104 -83 -3 -4 -106 -87 -230 -186 -124
-98 -227 -182 -230 -185 -3 -3 -25 -21 -50 -40 -25 -19 -47 -37 -50 -40 -3 -3
-106 -86 -230 -185 -184 -147 -479 -385 -575 -463 -128 -105 -166 -134 -171
-129 -7 7 -6 170 1 201 3 12 7 32 9 46 19 112 82 212 242 385 148 160 183 309
116 497 -17 46 -40 109 -51 141 -57 155 -45 280 38 401 32 46 179 196 193 196
4 0 8 4 8 9 0 13 -30 10 -113 -11z"/>
<path d="M2488 3552 l-58 -3 -1 -92 c0 -51 0 -390 0 -754 0 -365 -3 -663 -6
-663 -3 0 -81 77 -174 170 -93 94 -171 170 -175 170 -3 0 -83 -77 -177 -172
l-172 -172 -3 683 -2 683 -23 -6 c-60 -17 -291 -73 -337 -82 -14 -2 -34 -6
-46 -9 -12 -3 -39 -7 -60 -10 -21 -3 -49 -8 -60 -10 -12 -3 -50 -7 -85 -11
-35 -3 -75 -7 -89 -10 -14 -2 -86 -4 -160 -4 -122 0 -186 3 -275 15 -16 2 -52
6 -80 10 -94 12 -359 75 -433 102 -9 4 -12 -141 -12 -703 l0 -707 31 -56 c80
-142 237 -323 385 -443 76 -61 234 -159 326 -202 87 -42 242 -100 291 -110 12
-3 64 -14 116 -25 52 -11 124 -23 160 -26 123 -11 156 -14 236 -20 44 -4 91
-8 105 -10 14 -2 52 -7 85 -10 33 -3 76 -8 95 -10 529 -71 797 -139 1064 -270
111 -53 302 -169 342 -206 11 -10 22 -19 25 -19 2 0 4 635 4 1410 l0 1410 -80
31 c-85 33 -220 76 -270 85 -16 3 -34 7 -40 8 -14 4 -74 15 -110 21 -76 13
-253 21 -337 17z"/>
<path d="M4367 3554 c-1 -1 -40 -5 -87 -8 -89 -6 -109 -9 -175 -21 -22 -4 -48
-9 -57 -11 -52 -9 -215 -57 -293 -86 l-90 -34 -1 -1636 -1 -1636 41 13 c22 7
77 24 121 38 121 40 284 77 403 92 102 12 368 13 422 1 14 -3 45 -9 70 -12 25
-3 53 -8 62 -10 10 -3 30 -7 45 -10 28 -5 163 -42 363 -98 180 -50 270 -74
310 -80 19 -3 46 -8 60 -11 33 -7 152 -25 220 -32 125 -15 531 -7 642 12 13 2
41 6 63 9 83 11 124 19 270 48 82 16 154 33 160 38 7 6 10 552 10 1637 0 1428
-2 1628 -15 1627 -8 -1 -55 -14 -105 -28 -119 -35 -313 -74 -433 -86 -95 -9
-463 -7 -512 3 -14 3 -43 8 -65 12 -22 3 -67 10 -100 16 -33 6 -71 13 -85 15
-32 6 -386 96 -510 130 -112 31 -95 26 -245 58 -66 14 -138 27 -160 30 -61 8
-324 24 -328 20z m2197 -540 c79 -41 127 -136 112 -219 -6 -29 -20 -52 -52
-82 -52 -51 -77 -58 -28 -9 19 19 35 41 35 50 1 9 2 24 2 34 1 9 -4 31 -11 48
-37 88 -180 87 -248 -1 -25 -33 -28 -46 -28 -104 0 -72 18 -115 80 -204 19
-26 34 -51 34 -56 0 -22 21 -20 56 4 48 32 73 39 135 33 70 -7 148 -68 86 -68
-57 0 -124 -38 -150 -85 -6 -11 -14 -84 -17 -161 -6 -128 -9 -145 -32 -185
-38 -64 -86 -109 -146 -137 -44 -20 -65 -23 -115 -20 -34 3 -75 10 -91 17
l-29 12 48 32 c68 44 96 96 90 165 -3 29 -9 60 -14 70 -4 9 -19 39 -32 66 -13
26 -63 91 -111 143 -136 146 -169 220 -164 360 3 96 31 164 89 221 34 32 106
82 120 82 2 0 -17 -21 -43 -48 -60 -62 -79 -120 -68 -208 8 -72 55 -178 93
-214 l24 -23 -21 54 c-28 70 -31 224 -4 282 25 57 94 127 151 153 65 31 189
30 249 -2z m-1532 -122 c35 -17 81 -48 102 -69 46 -45 91 -102 85 -108 -3 -2
-26 -5 -52 -6 -27 -2 -56 -8 -64 -14 -18 -13 -10 -15 99 -31 35 -4 51 -13 63
-31 21 -31 48 -123 40 -131 -4 -4 -40 -7 -81 -8 -41 0 -77 -4 -80 -7 -11 -11
7 -27 30 -27 32 0 129 -30 144 -44 7 -7 14 -40 15 -77 2 -63 2 -64 -23 -62
-89 8 -160 0 -125 -14 6 -2 39 -18 75 -36 72 -36 75 -44 55 -127 -17 -70 -10
-88 38 -101 53 -14 72 -18 127 -24 25 -3 61 -8 80 -11 19 -3 107 -7 195 -9
112 -3 174 -9 205 -20 133 -47 226 -159 254 -304 23 -117 2 -211 -69 -315 -80
-117 -87 -173 -35 -276 20 -38 86 -110 101 -110 5 0 13 -9 19 -21 13 -23 -5
-66 -72 -177 -22 -35 -43 -73 -49 -85 -5 -12 -32 -62 -59 -112 -40 -74 -53
-91 -74 -93 -28 -4 -62 -44 -52 -61 19 -30 -70 -43 -233 -32 -10 1 -9 7 4 28
24 38 44 56 96 88 24 15 55 37 67 49 24 21 85 120 133 214 46 92 24 149 -101
261 -84 75 -133 138 -190 244 -48 89 -43 87 -178 58 -201 -44 -345 -44 -510 0
-105 28 -135 45 -128 72 16 54 18 114 5 122 -8 6 -17 2 -23 -9 -6 -10 -26 -38
-45 -63 -33 -45 -33 -45 -85 -39 -108 11 -162 18 -200 26 -22 5 -49 5 -64 -1
-34 -13 -26 -44 38 -151 39 -66 50 -93 47 -115 -3 -16 1 -39 7 -51 11 -20 14
-21 31 -7 49 36 83 9 103 -80 23 -104 25 -135 9 -135 -34 0 -70 22 -120 74
-29 29 -70 65 -92 78 -59 37 -71 55 -90 133 -10 38 -22 77 -26 85 -24 45 -79
186 -79 204 0 42 37 84 82 96 33 8 185 58 195 64 1 1 -7 26 -17 56 -37 106
-20 214 45 292 14 16 25 38 25 48 0 26 48 157 76 208 43 78 54 89 97 101 54
16 84 45 109 100 25 58 25 134 0 191 l-20 45 0 -71 c1 -134 -57 -200 -182
-209 -55 -4 -65 -9 -114 -51 -34 -29 -56 -57 -60 -75 -5 -27 -21 -36 -51 -29
-5 1 -21 4 -35 7 -33 6 -34 7 -18 32 7 12 29 26 49 31 42 12 64 33 55 55 -11
29 -45 15 -88 -35 -24 -27 -48 -50 -55 -50 -7 0 -15 16 -19 35 -3 19 -12 39
-20 46 -8 6 -14 19 -14 28 0 13 113 164 157 209 9 10 10 19 1 37 -9 21 -7 30
18 62 16 21 57 66 91 101 l63 63 -16 32 c-9 18 -23 40 -32 50 -14 16 -13 17 7
17 35 0 93 -28 143 -71 70 -59 91 -48 43 23 -14 20 -25 39 -25 42 0 9 35 12
107 11 59 -2 85 -8 135 -33z m-600 -1099 c55 -25 57 -28 64 -72 4 -25 10 -56
15 -68 9 -25 2 -33 -42 -40 -25 -4 -40 4 -85 44 -87 75 -88 75 -118 62 -22
-10 -31 -28 -57 -113 -17 -56 -35 -115 -40 -133 -6 -18 -19 -35 -29 -38 -31
-10 -37 -65 -6 -65 24 0 34 -34 22 -80 -14 -52 -56 -132 -73 -137 -20 -7 -63
152 -64 237 -2 75 -2 75 84 251 47 96 93 181 101 188 9 7 33 19 53 26 35 13
41 12 78 -11 22 -14 66 -37 97 -51z m1358 -800 c0 -5 23 -31 50 -60 l49 -52
-37 -29 c-53 -42 -313 -212 -324 -212 -5 0 -19 5 -30 11 -16 9 -24 8 -36 -5
-14 -14 -14 -19 2 -53 l18 -37 -34 -28 c-41 -34 -116 -71 -138 -69 -15 2 15
110 56 202 29 64 43 75 177 144 122 63 186 110 212 158 18 34 35 48 35 30z"/>
<path d="M4596 2616 c-20 -18 -36 -42 -36 -52 1 -18 1 -18 14 -1 7 9 25 17 38
17 35 0 73 32 65 53 -10 27 -43 20 -81 -17z"/>
<path d="M60 1189 l0 -214 68 -45 c154 -102 493 -253 616 -276 16 -3 33 -7 37
-10 6 -3 96 -21 194 -38 68 -12 199 -20 340 -20 131 0 196 3 415 19 62 4 175
14 235 20 138 15 416 20 510 10 315 -32 526 -100 763 -243 64 -39 82 -47 83
-34 4 62 4 79 -3 93 -12 26 -194 144 -298 193 -117 55 -240 96 -390 130 -278
61 -523 82 -1055 91 -148 3 -281 7 -295 9 -14 3 -45 7 -70 10 -25 3 -56 8 -70
11 -14 3 -41 8 -60 11 -214 34 -543 167 -764 306 -67 43 -187 129 -206 148 -3
3 -15 14 -27 24 l-23 19 0 -214z"/>
<path d="M60 355 l0 -235 28 -6 c15 -3 45 -11 67 -16 22 -6 51 -12 65 -15 14
-2 59 -10 100 -18 231 -45 370 -58 605 -59 213 -1 277 3 415 25 36 6 77 12 93
14 50 7 234 54 409 104 251 72 388 104 518 119 74 8 310 8 388 -1 129 -14 319
-60 486 -117 50 -16 90 -30 91 -30 0 0 0 22 -1 49 -1 57 -10 72 -62 99 -20 11
-62 33 -93 50 -134 73 -342 133 -509 149 -129 11 -322 6 -460 -12 -19 -2 -55
-7 -80 -10 -85 -11 -115 -16 -165 -25 -27 -6 -68 -12 -90 -15 -22 -3 -49 -7
-60 -9 -11 -2 -42 -7 -70 -10 -27 -4 -57 -9 -65 -11 -16 -5 -138 -20 -255 -32
-146 -15 -452 -9 -610 11 -194 25 -460 107 -660 201 -40 19 -76 35 -79 35 -3
0 -6 -106 -6 -235z"/>
</g>
</svg>
